<?xml version="1.0" encoding="UTF-8" standalone="no"?>
<!-- Created with Inkscape (http://www.inkscape.org/) -->

<svg
   xmlns:dc="http://purl.org/dc/elements/1.1/"
   xmlns:cc="http://creativecommons.org/ns#"
   xmlns:rdf="http://www.w3.org/1999/02/22-rdf-syntax-ns#"
   xmlns:svg="http://www.w3.org/2000/svg"
   xmlns="http://www.w3.org/2000/svg"
   xmlns:sodipodi="http://sodipodi.sourceforge.net/DTD/sodipodi-0.dtd"
   xmlns:inkscape="http://www.inkscape.org/namespaces/inkscape"
   width="50.1563mm"
   height="50.1563mm"
   viewBox="0 0 50.1563 50.1563"
   version="1.1"
   id="svg4652"
   inkscape:version="0.92.3 (2405546, 2018-03-11)"
   sodipodi:docname="Icon.svg"
   inkscape:export-filename="./icon.png"
   inkscape:export-xdpi="71.911201"
   inkscape:export-ydpi="71.911201">
  <defs
     id="defs4646" />
  <sodipodi:namedview
     id="base"
     pagecolor="#ffffff"
     bordercolor="#666666"
     borderopacity="1.0"
     inkscape:pageopacity="0.0"
     inkscape:pageshadow="2"
     inkscape:zoom="5.6"
     inkscape:cx="80.124138"
     inkscape:cy="99.957431"
     inkscape:document-units="mm"
     inkscape:current-layer="layer1"
     showgrid="false"
     fit-margin-top="0"
     fit-margin-left="0"
     fit-margin-right="0"
     fit-margin-bottom="0"
     inkscape:window-width="3840"
     inkscape:window-height="2089"
     inkscape:window-x="-8"
     inkscape:window-y="-8"
     inkscape:window-maximized="1" />
  <metadata
     id="metadata4649">
    <rdf:RDF>
      <cc:Work
         rdf:about="">
        <dc:format>image/svg+xml</dc:format>
        <dc:type
           rdf:resource="http://purl.org/dc/dcmitype/StillImage" />
        <dc:title></dc:title>
      </cc:Work>
    </rdf:RDF>
  </metadata>
  <g
     inkscape:label="Ebene 1"
     inkscape:groupmode="layer"
     id="layer1"
     transform="translate(-58.076609,-33.040896)">
    <path
       style="fill:#800080;fill-opacity:0.35387675;stroke:#000000;stroke-width:0.76499999;stroke-linecap:round;stroke-linejoin:bevel;stroke-miterlimit:4;stroke-dasharray:none;stroke-opacity:1"
       d="m 83.154759,58.119046 7.10344,23.63628 a 24.695707,24.695707 0 0 0 15.443511,-13.60692 z"
       id="path4771"
       inkscape:connector-curvature="0" />
    <path
       style="fill:#000000;fill-opacity:1;stroke:#000000;stroke-width:0.15669671;stroke-opacity:1"
       d="m 92.351349,67.217946 a 3.7215466,3.7215466 0 0 0 -2.02757,3.3096 3.7215466,3.7215466 0 0 0 0.008,0.16374 l 2.27883,-0.18454 a 1.4314424,1.4454332 0 0 1 0.7134,-1.16666 z m 3.42743,0.0189 -1.02006,2.10622 a 1.4314424,1.4454332 0 0 1 0.7085,1.18012 l 2.29322,0.19158 a 3.7215466,3.7215466 0 0 0 0.006,-0.18731 3.7215466,3.7215466 0 0 0 -1.98809,-3.29061 z m -1.71938,2.52121 a 0.79747433,0.79747433 0 0 0 -0.79756,0.79726 0.79747433,0.79747433 0 0 0 0.79756,0.79757 0.79747433,0.79747433 0 0 0 0.79756,-0.79757 0.79747433,0.79747433 0 0 0 -0.79756,-0.79726 z m 0.71799,2.06859 a 1.4314424,1.4454332 0 0 1 -0.73911,0.20934 1.4314424,1.4454332 0 0 1 -0.6987,-0.18455 l -1.29643,1.81242 a 3.7215466,3.7215466 0 0 0 2.00217,0.58516 3.7215466,3.7215466 0 0 0 1.99972,-0.58761 z"
       id="path840"
       inkscape:connector-curvature="0" />
    <path
       style="fill:#0000ff;fill-opacity:0.26838971;stroke:#000000;stroke-width:0.76499999;stroke-linecap:round;stroke-linejoin:bevel;stroke-miterlimit:4;stroke-dasharray:none;stroke-opacity:1"
       d="m 83.154759,58.119046 -21.79815,11.58017 a 24.695707,24.695707 0 0 0 21.79815,13.11548 24.695707,24.695707 0 0 0 7.10344,-1.05937 z"
       id="path4774"
       inkscape:connector-curvature="0" />
    <g
       id="g834"
       style="fill:#000000;fill-opacity:1;stroke:none;stroke-opacity:1"
       transform="matrix(0.68489851,0,0,0.68489851,7.290288,-25.968305)">
      <path
         sodipodi:nodetypes="czczczc"
         inkscape:connector-curvature="0"
         id="path826"
         d="m 103.75446,141.4628 c -0.90203,0.78959 -5.129079,4.23209 -6.017072,2.7513 -0.887993,-1.48079 4.436522,-3.95014 5.375192,-3.81604 -0.55614,-0.92909 -0.97465,-6.51578 0.54739,-6.54204 1.52204,-0.0263 1.40221,5.02059 0.69487,6.72914 1.17511,-0.18178 6.2454,2.2616 5.21101,3.61796 -1.03439,1.35636 -5.31219,-1.75674 -5.81139,-2.74032 z"
         style="fill-opacity:1;stroke:none;stroke-opacity:1" />
      <path
         inkscape:connector-curvature="0"
         id="path830"
         d="m 102.58138,150.35255 2.18827,-0.0167 -1.05237,-7.86774 z"
         style="fill-opacity:1;stroke:none;stroke-opacity:1" />
    </g>
    <path
       style="fill:#ffff00;fill-opacity:1;stroke:#000000;stroke-width:0.76499999;stroke-linecap:round;stroke-linejoin:bevel;stroke-miterlimit:4;stroke-dasharray:none;stroke-opacity:1"
       d="m 83.154759,33.423396 a 24.695707,24.695707 0 0 0 -24.69565,24.69565 24.695707,24.695707 0 0 0 2.8975,11.58017 l 21.79815,-11.58017 z"
       id="path4768"
       inkscape:connector-curvature="0" />
    <g
       id="g4715"
       transform="matrix(1.3420124,0,0,1.3420124,-16.947098,-123.34673)">
      <circle
         r="1.9293519"
         cy="129.67256"
         cx="66.232727"
         id="path879"
         style="fill:#000000;fill-opacity:1;stroke:#000000;stroke-width:0.26458332;stroke-opacity:1" />
      <path
         inkscape:connector-curvature="0"
         id="path883"
         d="m 63.960939,127.40078 0.442664,0.41761"
         style="fill:none;stroke:#000000;stroke-width:0.66500002;stroke-linecap:round;stroke-linejoin:miter;stroke-miterlimit:4;stroke-dasharray:none;stroke-opacity:1" />
      <path
         inkscape:connector-curvature="0"
         id="path883-9"
         d="m 68.032624,131.45158 0.442664,0.41761"
         style="fill:none;stroke:#000000;stroke-width:0.66500002;stroke-linecap:round;stroke-linejoin:miter;stroke-miterlimit:4;stroke-dasharray:none;stroke-opacity:1" />
      <path
         inkscape:connector-curvature="0"
         id="path883-6"
         d="m 64.428662,131.40565 -0.41761,0.44267"
         style="fill:none;stroke:#000000;stroke-width:0.66500002;stroke-linecap:round;stroke-linejoin:miter;stroke-miterlimit:4;stroke-dasharray:none;stroke-opacity:1" />
      <path
         inkscape:connector-curvature="0"
         id="path883-6-8"
         d="m 68.412647,127.43001 -0.41761,0.44267"
         style="fill:none;stroke:#000000;stroke-width:0.66500002;stroke-linecap:round;stroke-linejoin:miter;stroke-miterlimit:4;stroke-dasharray:none;stroke-opacity:1" />
      <path
         inkscape:connector-curvature="0"
         id="path883-6-84"
         d="m 69.360024,129.64291 -0.60852,-0.008"
         style="fill:none;stroke:#000000;stroke-width:0.66500002;stroke-linecap:round;stroke-linejoin:miter;stroke-miterlimit:4;stroke-dasharray:none;stroke-opacity:1" />
      <path
         inkscape:transform-center-y="-0.30067822"
         inkscape:transform-center-x="-4.5853428"
         inkscape:connector-curvature="0"
         id="path883-6-84-9"
         d="m 63.680547,129.64316 -0.60852,-0.008"
         style="fill:none;stroke:#000000;stroke-width:0.66500002;stroke-linecap:round;stroke-linejoin:miter;stroke-miterlimit:4;stroke-dasharray:none;stroke-opacity:1" />
      <path
         inkscape:connector-curvature="0"
         id="path883-6-84-3"
         d="m 66.212025,132.79151 0.008,-0.60852"
         style="fill:none;stroke:#000000;stroke-width:0.66500002;stroke-linecap:round;stroke-linejoin:miter;stroke-miterlimit:4;stroke-dasharray:none;stroke-opacity:1" />
      <path
         inkscape:transform-center-y="-0.066817378"
         inkscape:transform-center-x="-0.10022607"
         inkscape:connector-curvature="0"
         id="path883-6-84-3-4"
         d="m 66.203674,127.08698 0.008,-0.60852"
         style="fill:none;stroke:#000000;stroke-width:0.66500002;stroke-linecap:round;stroke-linejoin:miter;stroke-miterlimit:4;stroke-dasharray:none;stroke-opacity:1" />
    </g>
    <path
       style="fill:#ff0000;fill-opacity:0.24055666;stroke:#000000;stroke-width:0.76499999;stroke-linecap:round;stroke-linejoin:bevel;stroke-miterlimit:4;stroke-dasharray:none;stroke-opacity:1"
       d="m 83.154759,33.423396 v 24.69565 l 22.546951,10.02936 a 24.695707,24.695707 0 0 0 2.1487,-10.02936 24.695707,24.695707 0 0 0 -24.695651,-24.69565 z"
       id="path4761"
       inkscape:connector-curvature="0" />
    <g
       id="g4748"
       transform="matrix(0.71019429,0,0,0.71019429,27.07764,-86.783312)">
      <path
         inkscape:connector-curvature="0"
         id="path4736"
         d="m 92.024239,197.98332 4.981236,-0.0468"
         style="fill:none;stroke:#000000;stroke-width:0.76499999;stroke-linecap:round;stroke-linejoin:miter;stroke-miterlimit:4;stroke-dasharray:none;stroke-opacity:1" />
      <path
         inkscape:connector-curvature="0"
         id="path4738"
         d="m 90.527528,199.57357 7.974655,-0.0468"
         style="fill:none;stroke:#000000;stroke-width:0.76499999;stroke-linecap:round;stroke-linejoin:miter;stroke-miterlimit:4;stroke-dasharray:none;stroke-opacity:1" />
      <path
         sodipodi:nodetypes="ccscc"
         inkscape:connector-curvature="0"
         id="path4740"
         d="m 94.362846,185.70563 c 0,0 -3.741774,4.51351 -3.858705,6.7118 -0.04677,1.73057 1.566868,3.92886 3.695002,3.92886 2.128133,0 4.045791,-1.61364 4.069178,-3.74177 -0.04677,-2.29184 -3.905475,-6.89889 -3.905475,-6.89889 z"
         style="fill:none;stroke:#000000;stroke-width:0.76499999;stroke-linecap:butt;stroke-linejoin:miter;stroke-miterlimit:4;stroke-dasharray:none;stroke-opacity:1" />
      <path
         sodipodi:nodetypes="cccsc"
         inkscape:connector-curvature="0"
         id="path4742"
         d="m 94.386232,190.19576 c 0,0 -2.221677,2.82971 -2.26845,3.90547 -0.04677,1.07576 0.912058,2.1749 2.315223,2.19829 1.07576,-0.0468 2.174905,-0.88867 2.198291,-2.15152 0.02988,-1.61336 -2.245064,-3.95224 -2.245064,-3.95224 z"
         style="fill:none;stroke:#000000;stroke-width:0.76499999;stroke-linecap:butt;stroke-linejoin:miter;stroke-miterlimit:4;stroke-dasharray:none;stroke-opacity:1" />
    </g>
  </g>
</svg>
